<?xml version="1.0" encoding="UTF-8"?>
<svg width="512px" height="512px" viewBox="0 0 512 512" version="1.1" xmlns="http://www.w3.org/2000/svg" xmlns:xlink="http://www.w3.org/1999/xlink">
    <!-- Generator: Sketch 55.2 (78181) - https://sketchapp.com -->
    <title>Fashion</title>
    <desc>Created with Sketch.</desc>
    <g id="Fashion" stroke="none" stroke-width="1" fill="none" fill-rule="evenodd">
        <g id="fashion-logo" transform="translate(0.000000, 8.000000)" fill-rule="nonzero">
            <rect id="Rectangle" fill="#546E7A" x="0.4" y="0" width="512" height="496"></rect>
            <g id="Group" transform="translate(55.000000, 117.000000)" fill="#FFFFFF">
                <path d="M339.104276,95.6690965 L339.104276,95.6690965 L339.104276,95.6690965 C339.104276,97.1523301 339.178831,98.9052103 339.327942,100.927737 L339.327942,100.927737 L339.327942,100.927737 C339.477406,102.950264 339.552138,105.242437 339.552138,107.804257 L339.552138,107.804257 L339.552138,107.804257 C339.552138,111.040725 339.029544,115.052295 337.984356,119.838965 L337.984356,119.838965 L337.984356,119.838965 C336.938815,124.625635 335.258846,129.648468 332.944451,134.907463 L332.944451,134.907463 L332.944451,134.907463 C330.629702,140.166103 327.531239,145.424744 323.649062,150.683385 L323.649062,150.683385 L323.649062,150.683385 C319.766532,155.942379 314.9881,160.661904 309.313768,164.841958 L309.313768,164.841958 L309.313768,164.841958 C303.639436,169.021658 296.957018,172.426256 289.266512,175.055754 L289.266512,175.055754 L289.266512,175.055754 C281.576359,177.685251 272.803564,179 262.948127,179 L262.948127,179 L262.948127,179 C254.137878,179 245.140887,177.482928 235.957154,174.448783 L235.957154,174.448783 L235.957154,174.448783 C226.773775,171.414993 218.411565,166.695646 210.870523,160.290741 L210.870523,160.290741 L210.870523,160.290741 C203.329834,153.885837 197.132908,145.728052 192.279745,135.817387 L192.279745,135.817387 L192.279745,135.817387 C187.426582,125.906723 185,114.074516 185,100.320766 L185,100.320766 L185,100.320766 C185,91.6910116 186.23193,83.1960802 188.695789,74.835972 L188.695789,74.835972 L188.695789,74.835972 C191.159648,66.4758639 194.444853,58.5877259 198.551403,51.171558 L198.551403,51.171558 L198.551403,51.171558 C202.657953,43.7553902 207.510939,36.9123543 213.110363,30.6424504 L213.110363,30.6424504 L213.110363,30.6424504 C218.710139,24.3721921 224.60849,18.978551 230.805416,14.4615273 L230.805416,14.4615273 L230.805416,14.4615273 C237.002696,9.9445035 243.423818,6.40490443 250.068782,3.84273006 L250.068782,3.84273006 L250.068782,3.84273006 C256.713747,1.28091002 263.17197,0 269.443451,0 L269.443451,0 L269.443451,0 C280.344429,0 289.34142,1.5507338 296.434424,4.65220141 L296.434424,4.65220141 L296.434424,4.65220141 C303.527427,7.75331469 309.164481,11.5962219 313.345586,16.1809231 L313.345586,16.1809231 L313.345586,16.1809231 C317.526692,20.7652699 320.475867,25.6531021 322.193113,30.8444196 L322.193113,30.8444196 L322.193113,30.8444196 C323.910359,36.0357371 324.768982,40.7214228 324.768982,44.9014769 L324.768982,44.9014769 L324.768982,44.9014769 C324.768982,48.9468848 323.68634,53.5652476 321.521055,58.756565 L321.521055,58.756565 L321.521055,58.756565 C319.355771,63.9478825 315.809269,68.8695534 310.88155,73.5215776 L310.88155,73.5215776 L310.88155,73.5215776 C305.953832,78.1736019 299.532887,82.0838322 291.618715,85.2522685 L291.618715,85.2522685 L291.618715,85.2522685 C283.704189,88.4210592 273.99804,90.0054545 262.500265,90.0054545 L262.500265,90.0054545 L262.500265,90.0054545 C256.377894,90.0054545 250.890127,89.2301762 246.036964,87.6796196 L246.036964,87.6796196 L246.036964,87.6796196 C241.183801,86.1290629 236.890686,84.1738592 233.157619,81.8140084 L233.157619,81.8140084 L233.157619,81.8140084 C227.483641,78.822738 223.33999,75.945031 220.726667,73.1808875 C222.749554,65.6729476 223.33787,60.429189 222.491614,57.4496116 C222.307169,56.8006526 222.328899,55.1019852 222.008241,54.6677514 L221.016584,57.4294147 L217.030348,66.3410405 L217.030348,66.3410405 C214.342469,74.7011487 212.99853,84.4771674 212.99853,95.6690965 L212.99853,95.6690965 L212.99853,95.6690965 C212.99853,103.354911 214.230459,110.265447 216.694319,116.400705 L216.694319,116.400705 L216.694319,116.400705 C219.158178,122.535963 222.555392,127.760942 226.885961,132.075642 L226.885961,132.075642 L226.885961,132.075642 C231.216177,136.390342 236.367915,139.693956 242.341175,141.986484 L242.341175,141.986484 L242.341175,141.986484 C248.314082,144.278657 254.884314,145.424744 262.051873,145.424744 L262.051873,145.424744 L262.051873,145.424744 C271.011586,145.424744 278.851203,144.042672 285.570723,141.278529 L285.570723,141.278529 L285.570723,141.278529 C292.290596,138.514385 298.15167,135.042286 303.153943,130.862232 L303.153943,130.862232 L303.153943,130.862232 C308.156217,126.682178 312.48661,122.131316 316.145121,117.209645 L316.145121,117.209645 L316.145121,117.209645 C319.803633,112.287974 322.976828,107.770773 325.664706,103.658042 L325.664706,103.658042 L325.664706,103.658042 C328.352585,99.5456653 330.704434,96.1410667 332.720255,93.4442462 L332.720255,93.4442462 L332.720255,93.4442462 C334.736076,90.7474256 336.714619,89.4663385 338.655884,89.6009846 L338.655884,89.6009846 L338.655884,89.6009846 C339.551961,89.6009846 340,90.2752783 340,91.6238657 L340,91.6238657 L340,91.6238657 C340,92.2978051 339.925268,92.9719217 339.775804,93.6462154 L339.775804,93.6462154 L339.775804,93.6462154 C339.626693,94.3205091 339.402851,94.9948028 339.104276,95.6690965 Z M271.683291,20.4281231 L271.683291,20.4281231 L271.683291,20.4281231 C268.995766,20.4281231 265.523996,20.9337548 261.267982,21.9450182 L261.267982,21.9450182 L261.267982,21.9450182 C257.012321,22.9566359 252.532641,24.7433548 247.828942,27.3051748 L247.828942,27.3051748 L247.828942,27.3051748 C243.125243,29.8669949 238.458821,33.3390937 233.829677,37.7214713 L233.829677,37.7214713 L233.829677,37.7214713 L223.232574,52.340322 L221.734224,54.4078489 C222.749731,54.7597006 223.409068,54.9884219 223.712236,55.0940128 C232.887842,58.2893784 239.881379,60.9261396 244.692848,63.003765 L244.692848,63.003765 L244.692848,63.003765 C249.844586,65.2286154 255.630928,66.3410405 262.051873,66.3410405 L262.051873,66.3410405 L262.051873,66.3410405 C267.129056,66.3410405 271.496903,65.5657622 275.155414,64.0152056 L275.155414,64.0152056 L275.155414,64.0152056 C278.813925,62.464649 281.837833,60.4757837 284.227137,58.0486098 L284.227137,58.0486098 L284.227137,58.0486098 C286.616087,55.6214359 288.333333,52.9582769 289.378875,50.0591329 L289.378875,50.0591329 L289.378875,50.0591329 C290.424063,47.1603431 290.946657,44.2950378 290.946657,41.4632168 L290.946657,41.4632168 L290.946657,41.4632168 C290.946657,35.3956364 289.229411,30.3728037 285.794919,26.3947189 L285.794919,26.3947189 L285.794919,26.3947189 C282.360427,22.4169883 277.656551,20.4281231 271.683291,20.4281231 Z" id="Shape"></path>
                <path d="M0,58.4020566 L0,58.4020566 L0,58.4020566 C0,57.5721348 7.12459177,50.448403 21.3737753,37.0308613 L21.3737753,37.0308613 L21.3737753,37.0308613 C35.6229589,23.6133195 44.2797114,16.9045487 47.3440329,16.9045487 L47.3440329,16.9045487 L47.3440329,16.9045487 C50.4083544,16.9045487 51.9405152,22.4376562 51.9405152,33.5038713 L51.9405152,33.5038713 L51.9405152,33.5038713 C51.9405152,55.9124688 55.2346165,79.496907 61.8228193,104.257186 L61.8228193,104.257186 L61.8228193,104.257186 C68.411022,129.01711 76.3016056,151.079789 85.4945702,170.445221 L85.4945702,170.445221 L85.4945702,170.445221 C94.6875347,189.811009 104.186931,207.793298 113.99276,224.392088 L113.99276,224.392088 L113.99276,224.392088 C123.798943,240.991233 131.996136,253.786334 138.584339,262.777389 L138.584339,262.777389 L138.584339,262.777389 C145.172541,271.768445 149.079507,276.678934 150.305236,277.508856 L150.305236,277.508856 L150.305236,277.508856 C161.643402,146.65348 182.327661,64.0736027 212.358012,29.7692234 L212.358012,29.7692234 L212.358012,29.7692234 C221.550976,19.5329301 231.203678,14.2765223 241.316116,14 L241.316116,14 L241.316116,14 C251.374384,16.431905 257.935678,19.1694399 261,22.2126047 L253.726352,18.5647472 L253.726352,18.5647472 C250.730363,20.3094287 243.76598,26.7936805 232.833203,38.0175027 C216.434037,54.8532359 211.438715,69.6065328 197.649269,109.029059 L197.649269,109.029059 L197.649269,109.029059 C188.456304,135.310743 181.25506,163.874889 176.045536,194.721498 L176.045536,194.721498 L176.045536,194.721498 C170.836367,225.567751 168.231782,250.673772 168.231782,270.03956 L168.231782,270.03956 L170.529758,305.727438 L170.529758,305.727438 C157.046743,321.219784 147.930431,330.971542 143.180821,334.982712 L143.180821,334.982712 L143.180821,334.982712 C138.431211,338.994237 134.677373,341 131.919307,341 L131.919307,341 L131.919307,341 C127.016392,341 117.516996,330.625623 103.421117,309.876869 L103.421117,309.876869 L103.421117,309.876869 C89.3252376,289.128115 74.6164944,264.506275 59.2948868,236.011348 L59.2948868,236.011348 L59.2948868,236.011348 C43.9732792,207.516421 30.33696,176.39329 18.3859291,142.641955 L18.3859291,142.641955 L18.3859291,142.641955 C6.4352522,108.89062 0.306609177,80.810654 0,58.4020566 Z" id="Path"></path>
            </g>
        </g>
    </g>
</svg>